<svg width="886" height="105" viewBox="0 0 886 105" fill="none" xmlns="http://www.w3.org/2000/svg">
    <g clip-path="url(#clip0_4_53)">
        <path
            d="M820.609 83.7676C823.775 76.4416 823.771 69.1783 820.609 61.7967C821.885 62.1678 823.077 62.7835 824.119 63.6096C826.381 65.3506 827.476 67.7438 827.831 70.4991C828.172 73.0665 828.039 75.606 827.123 78.0595C826.086 80.8311 823.46 83.1269 820.609 83.7676Z"
            fill="#0A60E8" />
        <path
            d="M788.499 94.1135C804.165 94.1135 816.864 84.361 816.864 72.3306C816.864 60.3003 804.165 50.5478 788.499 50.5478C772.833 50.5478 760.133 60.3003 760.133 72.3306C760.133 84.361 772.833 94.1135 788.499 94.1135Z"
            fill="white" />
        <path
            d="M763.578 99.9979C764.678 98.4312 765.426 96.6446 765.771 94.7611C765.947 93.7862 765.794 93.1014 764.987 92.3981C760.894 88.8372 757.953 84.4825 756.602 79.1993C754.494 70.9263 756.231 63.4146 761.551 56.7897C766.745 50.3272 773.649 46.6805 781.734 45.2413C790.55 43.6721 798.943 44.9163 806.743 49.3918C813.289 53.1499 818.11 58.4703 820.226 65.8311C822.65 74.2689 820.908 81.9988 815.447 88.8117C810.343 95.1743 803.56 98.7932 795.64 100.295C787.436 101.846 779.516 100.868 771.99 97.1428C771.557 96.9269 771.26 96.8642 770.8 97.2287C768.74 98.8825 766.215 99.8508 763.578 99.9979ZM788.429 88.6492H804.172C805.062 88.6682 805.945 88.4938 806.761 88.1379C807.577 87.782 808.306 87.2532 808.898 86.5879C809.5 85.9372 810.063 85.2512 810.584 84.5336C813.57 80.3739 814.899 75.7336 814.343 70.6338C813.858 66.1909 811.969 62.3445 808.956 59.0622C808.357 58.3858 807.62 57.8468 806.794 57.4822C805.968 57.1176 805.073 56.936 804.17 56.9498C793.701 56.9498 783.232 56.9498 772.763 56.9498C771.06 56.9498 769.55 57.5186 768.381 58.7396C764.571 62.7136 762.52 67.4606 762.551 72.9922C762.576 77.8924 764.386 82.1659 767.492 85.924C769.025 87.7811 770.916 88.7096 773.373 88.6678C778.384 88.5935 783.404 88.6469 788.429 88.6492Z"
            fill="#0A60E8" />
        <path
            d="M756.382 61.8454C753.222 69.1876 753.227 76.4532 756.412 83.8279C753.944 83.0108 751.972 81.7388 750.633 79.6101C748.313 75.8961 748.494 69.1273 751.014 65.5502C752.218 63.844 754.449 62.2772 756.382 61.8454Z"
            fill="#0A60E8" />
        <path
            d="M789.104 53.4958C793.327 50.1253 798.024 47.1494 802.407 43.9089H802.302H795.517C795.471 43.905 795.426 43.9133 795.385 43.9329C795.345 43.9525 795.31 43.9827 795.285 44.0203C793.16 46.809 791.029 49.6046 788.893 52.4071C788.858 52.4512 788.817 52.4907 788.773 52.5371L788.691 52.4442L787.244 50.5454L782.286 44.025C782.259 43.9836 782.222 43.9502 782.178 43.9281C782.134 43.9061 782.085 43.8963 782.036 43.8996C779.79 43.8996 777.543 43.8996 775.294 43.8996H775.155C775.839 43.8625 777.832 45.8797 778.423 46.3161L781.975 48.9438C784.1 50.5153 786.281 51.9359 788.406 53.5051L788.782 53.7511L789.104 53.4958Z"
            fill="#0A60E8" />
        <path
            d="M795.424 36.453C795.12 36.5319 794.835 36.5946 794.554 36.6851C793.637 36.966 792.712 37.2167 791.814 37.5463C790.83 37.9061 789.875 38.3425 788.909 38.751C788.871 38.771 788.828 38.7814 788.784 38.7814C788.741 38.7814 788.698 38.771 788.659 38.751C787.168 38.0368 785.622 37.4415 784.038 36.9706C783.416 36.7872 782.787 36.6271 782.145 36.453L782.349 36.1466C783.567 34.3574 785.018 32.7384 786.664 31.3322C787.316 30.7798 788.012 30.2807 788.684 29.7538C788.711 29.7274 788.747 29.7126 788.784 29.7126C788.822 29.7126 788.857 29.7274 788.884 29.7538C791.412 31.5229 793.594 33.7408 795.322 36.2974L795.424 36.453Z"
            fill="#0A60E8" />
        <path
            d="M787.589 28.9135C787.144 29.2663 786.701 29.6098 786.274 29.9534C784.165 31.6832 782.341 33.733 780.866 36.0282C780.845 36.0766 780.806 36.1151 780.757 36.1362C780.709 36.1572 780.654 36.1593 780.604 36.1419C780.129 36.0514 779.648 35.9864 779.168 35.9098L778.723 35.8448C778.781 35.5964 778.834 35.355 778.899 35.1159C779.202 34.0271 779.605 32.9687 780.103 31.9543C781.002 30.136 782.208 28.4869 783.669 27.0797C783.689 27.0616 783.712 27.0481 783.738 27.0401C783.764 27.0321 783.791 27.0298 783.817 27.0332C785.112 27.5458 786.362 28.167 787.552 28.8902L787.589 28.9135Z"
            fill="#0A60E8" />
        <path
            d="M789.953 28.9111C790.329 28.6953 790.68 28.4863 791.037 28.289C791.907 27.8099 792.808 27.3874 793.733 27.0239C793.76 27.0172 793.789 27.0171 793.817 27.0236C793.845 27.03 793.871 27.0429 793.893 27.0611C795.298 28.4108 796.468 29.9862 797.354 31.7222C797.89 32.7741 798.319 33.8767 798.637 35.0138C798.713 35.2854 798.774 35.5639 798.846 35.8471C798.565 35.8866 798.296 35.9214 798.027 35.9632C797.66 36.0212 797.296 36.0746 796.934 36.1466C796.893 36.1614 796.848 36.1601 796.808 36.1428C796.768 36.1256 796.736 36.0937 796.718 36.0537C796.042 35.0016 795.292 33.9993 794.473 33.0546C793.158 31.5334 791.675 30.166 790.053 28.9785L789.953 28.9111Z"
            fill="#0A60E8" />
        <path
            d="M777.178 37.0286C776.915 38.8769 776.922 40.7535 777.199 42.5997H777.029C775.974 42.5997 774.918 42.5997 773.863 42.5997C773.816 42.6029 773.77 42.5933 773.73 42.572C773.689 42.5507 773.654 42.5185 773.631 42.479C773.107 41.7548 772.771 40.9117 772.654 40.0254C772.517 39.0239 772.666 38.0041 773.085 37.0844C773.099 37.0556 773.118 37.0303 773.143 37.0102C773.167 36.9901 773.196 36.9758 773.227 36.9683C774.083 36.9497 774.937 36.9335 775.793 36.9381C776.217 36.9381 776.642 36.9822 777.064 37.0077C777.096 37.0101 777.124 37.0194 777.178 37.0286Z"
            fill="#0A60E8" />
        <path
            d="M800.388 37.0217C800.567 37.0008 800.725 36.9706 800.883 36.9683C802.029 36.9683 803.174 36.9683 804.318 36.9683C804.35 36.9726 804.38 36.9842 804.406 37.0024C804.432 37.0205 804.454 37.0447 804.469 37.0727C804.865 37.9298 805.025 38.8769 804.933 39.8165C804.846 40.751 804.519 41.6473 803.984 42.4186C803.95 42.4784 803.901 42.5276 803.84 42.5604C803.78 42.5932 803.712 42.6085 803.643 42.6044C802.609 42.6044 801.572 42.6044 800.537 42.6044H800.365C800.645 40.7546 800.653 38.8737 800.388 37.0217Z"
            fill="#0A60E8" />
        <path
            d="M790.269 39.5379C790.733 39.3499 791.197 39.1433 791.661 38.9785C792.575 38.6605 793.491 38.3495 794.415 38.0663C794.957 37.8991 795.519 37.7877 796.069 37.6438C796.173 37.6182 796.201 37.6809 796.236 37.7482C796.625 38.5027 797.045 39.2431 797.396 40.0161C797.774 40.8471 798.092 41.706 798.44 42.5695C798.349 42.5695 798.307 42.5858 798.266 42.5858C797.166 42.5858 796.064 42.5858 794.962 42.5858C794.871 42.5756 794.784 42.5384 794.714 42.479C793.361 41.4224 791.928 40.474 790.427 39.6424L790.297 39.5704C790.297 39.5704 790.285 39.5612 790.269 39.5379Z"
            fill="#0A60E8" />
        <path
            d="M787.299 39.5588L786.873 39.791C785.458 40.5905 784.105 41.496 782.827 42.4999C782.766 42.5496 782.691 42.5788 782.613 42.5835C781.504 42.5835 780.394 42.5835 779.282 42.5835C779.252 42.5835 779.224 42.5835 779.168 42.5835C779.233 42.3862 779.291 42.1981 779.358 42.0124C779.884 40.5284 780.546 39.0963 781.335 37.7343C781.342 37.7152 781.353 37.6979 781.368 37.6832C781.382 37.6686 781.399 37.6571 781.418 37.6492C781.437 37.6414 781.457 37.6375 781.478 37.6378C781.498 37.638 781.518 37.6425 781.537 37.6507C782.465 37.9038 783.393 38.115 784.291 38.4098C785.279 38.7348 786.242 39.1387 787.216 39.5078C787.245 39.5218 787.273 39.5389 787.299 39.5588Z"
            fill="#0A60E8" />
        <path
            d="M799.198 40.9493C798.727 39.7161 798.165 38.5197 797.516 37.3699C797.66 37.3443 797.774 37.3211 797.89 37.3049C798.261 37.2515 798.632 37.1981 799.003 37.1517C799.034 37.1517 799.096 37.2167 799.101 37.2561C799.245 38.2871 799.3 39.3285 799.266 40.369C799.266 40.5616 799.266 40.7543 799.266 40.947L799.198 40.9493Z"
            fill="#0A60E8" />
        <path
            d="M778.335 41.0375C778.241 39.7345 778.291 38.4252 778.484 37.1331L780.054 37.3652C779.389 38.5439 778.814 39.7715 778.335 41.0375Z"
            fill="#0A60E8" />
        <path
            d="M788.374 81.4602C787.762 81.4353 787.163 81.2802 786.617 81.0052C786.071 80.7301 785.589 80.3416 785.205 79.8655C785.114 79.7043 785.064 79.5231 785.06 79.338C785.056 79.1529 785.098 78.9697 785.181 78.8047C785.446 78.4286 785.956 78.4333 786.304 78.8047C787.615 80.216 789.26 80.1974 790.617 78.8047C790.805 78.612 791.422 78.6027 791.675 78.7652C792.085 79.0298 792.027 79.5173 791.689 79.8887C791.274 80.3651 790.766 80.7507 790.195 81.0211C789.625 81.2915 789.005 81.441 788.374 81.4602Z"
            fill="#0A60E8" />
        <path
            d="M798.196 74.2759C800.707 74.2759 802.743 71.7962 802.743 68.7373C802.743 65.6784 800.707 63.1987 798.196 63.1987C795.685 63.1987 793.649 65.6784 793.649 68.7373C793.649 71.7962 795.685 74.2759 798.196 74.2759Z"
            fill="#0A60E8" />
        <path
            d="M778.825 74.2759C781.336 74.2759 783.372 71.7962 783.372 68.7373C783.372 65.6784 781.336 63.1987 778.825 63.1987C776.314 63.1987 774.278 65.6784 774.278 68.7373C774.278 71.7962 776.314 74.2759 778.825 74.2759Z"
            fill="#0A60E8" />
        <path
            d="M756.642 57.0682C758.708 57.0682 760.384 55.3919 760.384 53.324C760.384 51.2561 758.708 49.5798 756.642 49.5798C754.575 49.5798 752.9 51.2561 752.9 53.324C752.9 55.3919 754.575 57.0682 756.642 57.0682Z"
            fill="#0A60E8" />
    </g>
    <path
        d="M42.98 104.02C35.98 104.02 29.7733 103.133 24.36 101.36C19.04 99.4933 14.56 96.7867 10.92 93.24C7.28 89.6933 4.52667 85.26 2.66 79.94C0.886667 74.5267 0 68.2733 0 61.18V13.58C0 9.94 0.933333 7.18667 2.8 5.32001C4.66667 3.45334 7.37333 2.52 10.92 2.52C14.3733 2.52 17.0333 3.45334 18.9 5.32001C20.7667 7.18667 21.7 9.94 21.7 13.58V61.32C21.7 69.3467 23.52 75.4133 27.16 79.52C30.8 83.5333 36.0733 85.54 42.98 85.54C49.8867 85.54 55.1133 83.5333 58.66 79.52C62.3 75.4133 64.12 69.3467 64.12 61.32V13.58C64.12 9.94 65.0533 7.18667 66.92 5.32001C68.7867 3.45334 71.4467 2.52 74.9 2.52C78.3533 2.52 80.9667 3.45334 82.74 5.32001C84.6067 7.18667 85.54 9.94 85.54 13.58V61.18C85.54 70.6067 83.9067 78.54 80.64 84.98C77.4667 91.3267 72.7067 96.0867 66.36 99.26C60.1067 102.433 52.3133 104.02 42.98 104.02Z"
        fill="#0A60E8" />
    <path
        d="M115.663 103.74C112.116 103.74 109.41 102.76 107.543 100.8C105.676 98.84 104.743 96.0867 104.743 92.54V13.72C104.743 10.1733 105.676 7.42 107.543 5.46C109.41 3.5 112.116 2.52 115.663 2.52C119.116 2.52 121.776 3.5 123.643 5.46C125.51 7.42 126.443 10.1733 126.443 13.72V92.54C126.443 96.0867 125.51 98.84 123.643 100.8C121.87 102.76 119.21 103.74 115.663 103.74Z"
        fill="#0A60E8" />
    <path
        d="M180.745 103.74C177.199 103.74 174.492 102.76 172.625 100.8C170.759 98.84 169.825 96.0867 169.825 92.54V21.7H145.045C142.152 21.7 139.912 20.9067 138.325 19.32C136.739 17.7333 135.945 15.54 135.945 12.74C135.945 9.84667 136.739 7.65333 138.325 6.16C139.912 4.57334 142.152 3.78 145.045 3.78H216.305C219.199 3.78 221.439 4.57334 223.025 6.16C224.612 7.65333 225.405 9.84667 225.405 12.74C225.405 15.54 224.612 17.7333 223.025 19.32C221.439 20.9067 219.199 21.7 216.305 21.7H191.525V92.54C191.525 96.0867 190.592 98.84 188.725 100.8C186.952 102.76 184.292 103.74 180.745 103.74Z"
        fill="#0A60E8" />
    <path
        d="M226.488 103.74C223.875 103.74 221.728 103.133 220.048 101.92C218.462 100.707 217.435 99.0733 216.968 97.02C216.595 94.9667 217.015 92.68 218.228 90.16L254.068 11.62C255.562 8.44667 257.335 6.16 259.388 4.76001C261.442 3.26667 263.822 2.52 266.528 2.52C269.235 2.52 271.615 3.26667 273.668 4.76001C275.722 6.16 277.448 8.44667 278.848 11.62L314.968 90.16C316.182 92.68 316.602 95.0133 316.228 97.16C315.948 99.2133 315.015 100.847 313.428 102.06C311.842 103.18 309.788 103.74 307.268 103.74C304.095 103.74 301.622 102.993 299.848 101.5C298.168 100.007 296.675 97.6733 295.368 94.5L286.968 75.04L295.648 81.06H237.268L245.948 75.04L237.688 94.5C236.288 97.7667 234.795 100.147 233.208 101.64C231.715 103.04 229.475 103.74 226.488 103.74ZM266.248 26.88L248.328 69.58L244.548 64.12H288.368L284.588 69.58L266.528 26.88H266.248Z"
        fill="#0A60E8" />
    <path
        d="M353.335 104.02C347.362 104.02 342.088 102.573 337.515 99.68C333.035 96.7867 329.535 92.6333 327.015 87.22C324.495 81.8067 323.235 75.4133 323.235 68.04C323.235 60.6667 324.495 54.32 327.015 49C329.535 43.68 333.035 39.5733 337.515 36.68C342.088 33.7867 347.362 32.34 353.335 32.34C358.748 32.34 363.508 33.6467 367.615 36.26C371.815 38.8733 374.662 42.28 376.155 46.48H374.615V13.3C374.615 9.75334 375.502 7.09334 377.275 5.32001C379.048 3.45334 381.662 2.52 385.115 2.52C388.475 2.52 391.088 3.45334 392.955 5.32001C394.822 7.09334 395.755 9.75334 395.755 13.3V92.96C395.755 96.4133 394.822 99.0733 392.955 100.94C391.182 102.807 388.615 103.74 385.255 103.74C381.895 103.74 379.282 102.807 377.415 100.94C375.642 99.0733 374.755 96.4133 374.755 92.96V83.44L376.295 88.9C374.988 93.4733 372.188 97.16 367.895 99.96C363.695 102.667 358.842 104.02 353.335 104.02ZM359.635 88.2C362.715 88.2 365.375 87.4533 367.615 85.96C369.855 84.4667 371.628 82.2733 372.935 79.38C374.242 76.3933 374.895 72.6133 374.895 68.04C374.895 61.2267 373.495 56.2333 370.695 53.06C367.895 49.7933 364.208 48.16 359.635 48.16C356.648 48.16 353.988 48.86 351.655 50.26C349.415 51.66 347.642 53.8533 346.335 56.84C345.122 59.7333 344.515 63.4667 344.515 68.04C344.515 74.8533 345.915 79.94 348.715 83.3C351.515 86.5667 355.155 88.2 359.635 88.2Z"
        fill="#0A60E8" />
    <path
        d="M422.964 103.74C419.511 103.74 416.851 102.807 414.984 100.94C413.211 99.0733 412.324 96.4133 412.324 92.96V43.26C412.324 39.8067 413.211 37.1933 414.984 35.42C416.851 33.5533 419.417 32.62 422.684 32.62C426.044 32.62 428.611 33.5533 430.384 35.42C432.157 37.1933 433.044 39.8067 433.044 43.26V52.22L431.504 46.62C433.371 42.3267 436.264 38.8733 440.184 36.26C444.104 33.6467 448.724 32.34 454.044 32.34C459.364 32.34 463.797 33.6 467.344 36.12C470.891 38.64 473.411 42.5133 474.904 47.74H472.944C474.997 42.98 478.124 39.2467 482.324 36.54C486.617 33.74 491.517 32.34 497.024 32.34C502.344 32.34 506.684 33.4133 510.044 35.56C513.497 37.6133 516.064 40.7867 517.744 45.08C519.424 49.28 520.264 54.6467 520.264 61.18V92.96C520.264 96.4133 519.331 99.0733 517.464 100.94C515.691 102.807 513.124 103.74 509.764 103.74C506.311 103.74 503.651 102.807 501.784 100.94C500.011 99.0733 499.124 96.4133 499.124 92.96V61.88C499.124 57.3067 498.377 53.9933 496.884 51.94C495.484 49.7933 493.057 48.72 489.604 48.72C485.591 48.72 482.464 50.12 480.224 52.92C477.984 55.72 476.864 59.6867 476.864 64.82V92.96C476.864 96.4133 475.931 99.0733 474.064 100.94C472.291 102.807 469.724 103.74 466.364 103.74C463.004 103.74 460.391 102.807 458.524 100.94C456.657 99.0733 455.724 96.4133 455.724 92.96V61.88C455.724 57.3067 454.977 53.9933 453.484 51.94C452.084 49.7933 449.657 48.72 446.204 48.72C442.191 48.72 439.064 50.12 436.824 52.92C434.584 55.72 433.464 59.6867 433.464 64.82V92.96C433.464 100.147 429.964 103.74 422.964 103.74Z"
        fill="#0A60E8" />
    <path
        d="M547.098 103.6C543.645 103.6 540.985 102.62 539.118 100.66C537.345 98.6067 536.458 95.76 536.458 92.12V44.24C536.458 40.5067 537.345 37.66 539.118 35.7C540.985 33.6467 543.645 32.62 547.098 32.62C550.458 32.62 553.025 33.6467 554.798 35.7C556.665 37.66 557.598 40.5067 557.598 44.24V92.12C557.598 95.76 556.711 98.6067 554.938 100.66C553.165 102.62 550.551 103.6 547.098 103.6ZM547.098 21.14C543.178 21.14 540.145 20.2533 537.998 18.48C535.945 16.6133 534.918 14 534.918 10.64C534.918 7.18667 535.945 4.57334 537.998 2.80001C540.145 0.933335 543.178 0 547.098 0C551.018 0 554.005 0.933335 556.058 2.80001C558.111 4.57334 559.138 7.18667 559.138 10.64C559.138 14 558.111 16.6133 556.058 18.48C554.005 20.2533 551.018 21.14 547.098 21.14Z"
        fill="#0A60E8" />
    <path
        d="M584.559 103.74C581.106 103.74 578.446 102.807 576.579 100.94C574.806 99.0733 573.919 96.4133 573.919 92.96V43.26C573.919 39.8067 574.806 37.1933 576.579 35.42C578.446 33.5533 581.012 32.62 584.279 32.62C587.639 32.62 590.206 33.5533 591.979 35.42C593.752 37.1933 594.639 39.8067 594.639 43.26V51.24L593.099 46.62C595.246 42.0467 598.419 38.5467 602.619 36.12C606.912 33.6 611.766 32.34 617.179 32.34C622.686 32.34 627.212 33.4133 630.759 35.56C634.306 37.6133 636.966 40.7867 638.739 45.08C640.512 49.28 641.399 54.6467 641.399 61.18V92.96C641.399 96.4133 640.466 99.0733 638.599 100.94C636.826 102.807 634.212 103.74 630.759 103.74C627.399 103.74 624.786 102.807 622.919 100.94C621.146 99.0733 620.259 96.4133 620.259 92.96V62.16C620.259 57.4 619.372 53.9933 617.599 51.94C615.919 49.7933 613.306 48.72 609.759 48.72C605.279 48.72 601.686 50.12 598.979 52.92C596.366 55.72 595.059 59.4533 595.059 64.12V92.96C595.059 100.147 591.559 103.74 584.559 103.74Z"
        fill="#0A60E8" />
    <path
        d="M670.341 102.48C666.701 102.48 663.901 101.5 661.941 99.54C659.981 97.58 659.001 94.78 659.001 91.14V15.12C659.001 11.48 659.981 8.68 661.941 6.72001C663.901 4.76 666.701 3.78 670.341 3.78H704.221C711.221 3.78 717.194 4.80667 722.141 6.86C727.087 8.91334 730.821 11.8533 733.341 15.68C735.954 19.5067 737.261 24.08 737.261 29.4C737.261 35.28 735.581 40.2733 732.221 44.38C728.861 48.4867 724.241 51.24 718.361 52.64V50.4C725.174 51.6133 730.447 54.32 734.181 58.52C738.007 62.6267 739.921 67.9933 739.921 74.62C739.921 83.3933 736.887 90.2533 730.821 95.2C724.754 100.053 716.401 102.48 705.761 102.48H670.341ZM679.721 86.38H702.821C708.421 86.38 712.527 85.3067 715.141 83.16C717.754 80.92 719.061 77.6533 719.061 73.36C719.061 69.0667 717.754 65.8467 715.141 63.7C712.527 61.5533 708.421 60.48 702.821 60.48H679.721V86.38ZM679.721 44.38H700.441C705.854 44.38 709.867 43.3533 712.481 41.3C715.094 39.2467 716.401 36.1667 716.401 32.06C716.401 28.0467 715.094 25.0133 712.481 22.96C709.867 20.9067 705.854 19.88 700.441 19.88H679.721V44.38Z"
        fill="#0A60E8" />
    <path
        d="M870.022 104.02C863.582 104.02 858.169 102.947 853.782 100.8C849.489 98.6533 846.269 95.5267 844.122 91.42C842.069 87.3133 841.042 82.1333 841.042 75.88V49.56H835.162C832.549 49.56 830.496 48.86 829.002 47.46C827.602 46.06 826.902 44.1467 826.902 41.72C826.902 39.1067 827.602 37.1467 829.002 35.84C830.496 34.44 832.549 33.74 835.162 33.74H841.042V23.1C841.042 19.5533 841.976 16.8933 843.842 15.12C845.709 13.2533 848.322 12.32 851.682 12.32C855.136 12.32 857.749 13.2533 859.522 15.12C861.296 16.8933 862.182 19.5533 862.182 23.1V33.74H875.482C878.096 33.74 880.102 34.44 881.502 35.84C882.902 37.1467 883.602 39.1067 883.602 41.72C883.602 44.1467 882.902 46.06 881.502 47.46C880.102 48.86 878.096 49.56 875.482 49.56H862.182V75.04C862.182 78.96 863.069 81.9 864.842 83.86C866.709 85.82 869.649 86.8 873.662 86.8C875.062 86.8 876.369 86.66 877.582 86.38C878.796 86.1 879.916 85.9133 880.942 85.82C882.249 85.7267 883.322 86.1467 884.162 87.08C885.002 87.92 885.422 89.8333 885.422 92.82C885.422 95.06 885.049 97.02 884.302 98.7C883.556 100.38 882.249 101.593 880.382 102.34C879.169 102.807 877.489 103.18 875.342 103.46C873.289 103.833 871.516 104.02 870.022 104.02Z"
        fill="#0A60E8" />
    <defs>
        <clipPath id="clip0_4_53">
            <rect width="79" height="74" fill="white" transform="translate(749 27.01)" />
        </clipPath>
    </defs>
</svg>