<svg width="419" height="48" viewBox="0 0 419 48" fill="none" xmlns="http://www.w3.org/2000/svg">
    <path
        d="M19.872 47.704C16.672 47.704 13.8347 47.2986 11.36 46.488C8.928 45.6346 6.88 44.3973 5.216 42.776C3.552 41.1546 2.29333 39.128 1.44 36.696C0.629332 34.2213 0.223999 31.3626 0.223999 28.12V6.35998C0.223999 4.69598 0.650666 3.43731 1.504 2.58398C2.35733 1.73065 3.59467 1.30398 5.216 1.30398C6.79467 1.30398 8.01067 1.73065 8.864 2.58398C9.71733 3.43731 10.144 4.69598 10.144 6.35998V28.184C10.144 31.8533 10.976 34.6266 12.64 36.504C14.304 38.3386 16.7147 39.256 19.872 39.256C23.0293 39.256 25.4187 38.3386 27.04 36.504C28.704 34.6266 29.536 31.8533 29.536 28.184V6.35998C29.536 4.69598 29.9627 3.43731 30.816 2.58398C31.6693 1.73065 32.8853 1.30398 34.464 1.30398C36.0427 1.30398 37.2373 1.73065 38.048 2.58398C38.9013 3.43731 39.328 4.69598 39.328 6.35998V28.12C39.328 32.4293 38.5813 36.056 37.088 39C35.6373 41.9013 33.4613 44.0773 30.56 45.528C27.7013 46.9786 24.1387 47.704 19.872 47.704Z"
        fill="#0A60E8" />
    <path
        d="M53.0985 47.576C51.4772 47.576 50.2398 47.128 49.3865 46.232C48.5332 45.336 48.1065 44.0773 48.1065 42.456V6.42398C48.1065 4.80265 48.5332 3.54398 49.3865 2.64798C50.2398 1.75198 51.4772 1.30398 53.0985 1.30398C54.6772 1.30398 55.8932 1.75198 56.7465 2.64798C57.5998 3.54398 58.0265 4.80265 58.0265 6.42398V42.456C58.0265 44.0773 57.5998 45.336 56.7465 46.232C55.9358 47.128 54.7198 47.576 53.0985 47.576Z"
        fill="#0A60E8" />
    <path
        d="M82.8505 47.576C81.2292 47.576 79.9918 47.128 79.1385 46.232C78.2852 45.336 77.8585 44.0773 77.8585 42.456V10.072H66.5305C65.2078 10.072 64.1838 9.70931 63.4585 8.98398C62.7332 8.25865 62.3705 7.25598 62.3705 5.97598C62.3705 4.65331 62.7332 3.65065 63.4585 2.96798C64.1838 2.24265 65.2078 1.87998 66.5305 1.87998H99.1065C100.429 1.87998 101.453 2.24265 102.178 2.96798C102.904 3.65065 103.267 4.65331 103.267 5.97598C103.267 7.25598 102.904 8.25865 102.178 8.98398C101.453 9.70931 100.429 10.072 99.1065 10.072H87.7785V42.456C87.7785 44.0773 87.3518 45.336 86.4985 46.232C85.6878 47.128 84.4718 47.576 82.8505 47.576Z"
        fill="#0A60E8" />
    <path
        d="M103.761 47.576C102.567 47.576 101.585 47.2986 100.817 46.744C100.092 46.1893 99.6228 45.4426 99.4095 44.504C99.2388 43.5653 99.4308 42.52 99.9855 41.368L116.369 5.46398C117.052 4.01331 117.863 2.96798 118.801 2.32798C119.74 1.64531 120.828 1.30398 122.065 1.30398C123.303 1.30398 124.391 1.64531 125.329 2.32798C126.268 2.96798 127.058 4.01331 127.698 5.46398L144.21 41.368C144.764 42.52 144.956 43.5866 144.786 44.568C144.658 45.5066 144.231 46.2533 143.505 46.808C142.78 47.32 141.841 47.576 140.689 47.576C139.239 47.576 138.108 47.2346 137.298 46.552C136.529 45.8693 135.847 44.8027 135.249 43.352L131.41 34.456L135.378 37.208H108.689L112.658 34.456L108.882 43.352C108.242 44.8453 107.559 45.9333 106.833 46.616C106.151 47.256 105.127 47.576 103.761 47.576ZM121.938 12.44L113.745 31.96L112.018 29.464H132.049L130.322 31.96L122.065 12.44H121.938Z"
        fill="#0A60E8" />
    <path
        d="M161.749 47.704C159.018 47.704 156.607 47.0426 154.516 45.72C152.468 44.3973 150.868 42.4986 149.716 40.024C148.564 37.5493 147.988 34.6266 147.988 31.256C147.988 27.8853 148.564 24.984 149.716 22.552C150.868 20.12 152.468 18.2426 154.516 16.92C156.607 15.5973 159.018 14.936 161.749 14.936C164.223 14.936 166.399 15.5333 168.277 16.728C170.197 17.9226 171.498 19.48 172.18 21.4H171.477V6.23198C171.477 4.61065 171.882 3.39465 172.693 2.58398C173.503 1.73065 174.698 1.30398 176.277 1.30398C177.812 1.30398 179.007 1.73065 179.861 2.58398C180.714 3.39465 181.141 4.61065 181.141 6.23198V42.648C181.141 44.2266 180.714 45.4426 179.861 46.296C179.05 47.1493 177.876 47.576 176.34 47.576C174.805 47.576 173.61 47.1493 172.757 46.296C171.946 45.4426 171.54 44.2266 171.54 42.648V38.296L172.245 40.792C171.647 42.8826 170.367 44.568 168.404 45.848C166.484 47.0853 164.266 47.704 161.749 47.704ZM164.628 40.472C166.036 40.472 167.253 40.1306 168.277 39.448C169.301 38.7653 170.111 37.7626 170.708 36.44C171.306 35.0746 171.605 33.3466 171.605 31.256C171.605 28.1413 170.964 25.8586 169.684 24.408C168.404 22.9146 166.719 22.168 164.628 22.168C163.263 22.168 162.047 22.488 160.98 23.128C159.956 23.768 159.146 24.7706 158.548 26.136C157.994 27.4586 157.716 29.1653 157.716 31.256C157.716 34.3706 158.357 36.696 159.637 38.232C160.917 39.7253 162.58 40.472 164.628 40.472Z"
        fill="#0A60E8" />
    <path
        d="M193.579 47.576C192 47.576 190.784 47.1493 189.931 46.296C189.12 45.4426 188.715 44.2266 188.715 42.648V19.928C188.715 18.3493 189.12 17.1546 189.931 16.344C190.784 15.4906 191.958 15.064 193.451 15.064C194.987 15.064 196.16 15.4906 196.971 16.344C197.782 17.1546 198.187 18.3493 198.187 19.928V24.024L197.483 21.464C198.336 19.5013 199.659 17.9226 201.451 16.728C203.243 15.5333 205.355 14.936 207.787 14.936C210.219 14.936 212.246 15.512 213.867 16.664C215.488 17.816 216.64 19.5866 217.323 21.976H216.427C217.366 19.8 218.795 18.0933 220.715 16.856C222.678 15.576 224.918 14.936 227.435 14.936C229.867 14.936 231.851 15.4266 233.387 16.408C234.966 17.3466 236.139 18.7973 236.907 20.76C237.675 22.68 238.059 25.1333 238.059 28.12V42.648C238.059 44.2266 237.632 45.4426 236.779 46.296C235.968 47.1493 234.795 47.576 233.259 47.576C231.68 47.576 230.464 47.1493 229.611 46.296C228.8 45.4426 228.395 44.2266 228.395 42.648V28.44C228.395 26.3493 228.054 24.8346 227.371 23.896C226.731 22.9146 225.622 22.424 224.043 22.424C222.208 22.424 220.779 23.064 219.755 24.344C218.731 25.624 218.219 27.4373 218.219 29.784V42.648C218.219 44.2266 217.792 45.4426 216.939 46.296C216.128 47.1493 214.955 47.576 213.419 47.576C211.883 47.576 210.688 47.1493 209.835 46.296C208.982 45.4426 208.555 44.2266 208.555 42.648V28.44C208.555 26.3493 208.214 24.8346 207.531 23.896C206.891 22.9146 205.782 22.424 204.203 22.424C202.368 22.424 200.939 23.064 199.915 24.344C198.891 25.624 198.379 27.4373 198.379 29.784V42.648C198.379 45.9333 196.779 47.576 193.579 47.576Z"
        fill="#0A60E8" />
    <path
        d="M250.326 47.512C248.747 47.512 247.531 47.064 246.678 46.168C245.867 45.2293 245.462 43.928 245.462 42.264V20.376C245.462 18.6693 245.867 17.368 246.678 16.472C247.531 15.5333 248.747 15.064 250.326 15.064C251.862 15.064 253.035 15.5333 253.846 16.472C254.699 17.368 255.126 18.6693 255.126 20.376V42.264C255.126 43.928 254.721 45.2293 253.91 46.168C253.099 47.064 251.905 47.512 250.326 47.512ZM250.326 9.81598C248.534 9.81598 247.147 9.41065 246.166 8.59998C245.227 7.74665 244.758 6.55198 244.758 5.01598C244.758 3.43731 245.227 2.24265 246.166 1.43198C247.147 0.578645 248.534 0.151978 250.326 0.151978C252.118 0.151978 253.483 0.578645 254.422 1.43198C255.361 2.24265 255.83 3.43731 255.83 5.01598C255.83 6.55198 255.361 7.74665 254.422 8.59998C253.483 9.41065 252.118 9.81598 250.326 9.81598Z"
        fill="#0A60E8" />
    <path
        d="M267.451 47.576C265.872 47.576 264.656 47.1493 263.803 46.296C262.992 45.4426 262.587 44.2266 262.587 42.648V19.928C262.587 18.3493 262.992 17.1546 263.803 16.344C264.656 15.4906 265.83 15.064 267.323 15.064C268.859 15.064 270.032 15.4906 270.843 16.344C271.654 17.1546 272.059 18.3493 272.059 19.928V23.576L271.355 21.464C272.336 19.3733 273.787 17.7733 275.707 16.664C277.67 15.512 279.888 14.936 282.363 14.936C284.88 14.936 286.95 15.4266 288.571 16.408C290.192 17.3466 291.408 18.7973 292.219 20.76C293.03 22.68 293.435 25.1333 293.435 28.12V42.648C293.435 44.2266 293.008 45.4426 292.155 46.296C291.344 47.1493 290.15 47.576 288.571 47.576C287.035 47.576 285.84 47.1493 284.987 46.296C284.176 45.4426 283.771 44.2266 283.771 42.648V28.568C283.771 26.392 283.366 24.8346 282.555 23.896C281.787 22.9146 280.592 22.424 278.971 22.424C276.923 22.424 275.28 23.064 274.043 24.344C272.848 25.624 272.251 27.3306 272.251 29.464V42.648C272.251 45.9333 270.651 47.576 267.451 47.576Z"
        fill="#0A60E8" />
    <path
        d="M306.665 47C305.001 47 303.721 46.552 302.826 45.656C301.93 44.76 301.482 43.48 301.482 41.816V7.06398C301.482 5.39998 301.93 4.11998 302.826 3.22398C303.721 2.32798 305.001 1.87998 306.665 1.87998H322.154C325.354 1.87998 328.084 2.34931 330.345 3.28798C332.607 4.22665 334.314 5.57065 335.466 7.31998C336.66 9.06931 337.258 11.16 337.258 13.592C337.258 16.28 336.49 18.5626 334.953 20.44C333.417 22.3173 331.305 23.576 328.617 24.216V23.192C331.732 23.7466 334.143 24.984 335.849 26.904C337.599 28.7813 338.474 31.2346 338.474 34.264C338.474 38.2746 337.087 41.4106 334.314 43.672C331.54 45.8906 327.722 47 322.858 47H306.665ZM310.953 39.64H321.513C324.073 39.64 325.951 39.1493 327.146 38.168C328.34 37.144 328.938 35.6506 328.938 33.688C328.938 31.7253 328.34 30.2533 327.146 29.272C325.951 28.2906 324.073 27.8 321.513 27.8H310.953V39.64ZM310.953 20.44H320.426C322.9 20.44 324.735 19.9706 325.93 19.032C327.124 18.0933 327.721 16.6853 327.721 14.808C327.721 12.9733 327.124 11.5866 325.93 10.648C324.735 9.70931 322.9 9.23998 320.426 9.23998H310.953V20.44Z"
        fill="#0A60E8" />
    <path
        d="M411.136 47.704C408.192 47.704 405.717 47.2133 403.712 46.232C401.749 45.2507 400.277 43.8213 399.296 41.944C398.357 40.0667 397.888 37.6987 397.888 34.84V22.808H395.2C394.005 22.808 393.067 22.488 392.384 21.848C391.744 21.208 391.424 20.3333 391.424 19.224C391.424 18.0293 391.744 17.1333 392.384 16.536C393.067 15.896 394.005 15.576 395.2 15.576H397.888V10.712C397.888 9.09067 398.315 7.87467 399.168 7.064C400.021 6.21066 401.216 5.784 402.752 5.784C404.331 5.784 405.525 6.21066 406.336 7.064C407.147 7.87467 407.552 9.09067 407.552 10.712V15.576H413.632C414.827 15.576 415.744 15.896 416.384 16.536C417.024 17.1333 417.344 18.0293 417.344 19.224C417.344 20.3333 417.024 21.208 416.384 21.848C415.744 22.488 414.827 22.808 413.632 22.808H407.552V34.456C407.552 36.248 407.957 37.592 408.768 38.488C409.621 39.384 410.965 39.832 412.8 39.832C413.44 39.832 414.037 39.768 414.592 39.64C415.147 39.512 415.659 39.4267 416.128 39.384C416.725 39.3413 417.216 39.5333 417.6 39.96C417.984 40.344 418.176 41.2187 418.176 42.584C418.176 43.608 418.005 44.504 417.664 45.272C417.323 46.04 416.725 46.5947 415.872 46.936C415.317 47.1493 414.549 47.32 413.568 47.448C412.629 47.6187 411.819 47.704 411.136 47.704Z"
        fill="#0A60E8" />
    <g clip-path="url(#clip0_14_52)">
        <path
            d="M386.509 36.5147C388.433 32.0598 388.43 27.6429 386.509 23.1541C387.285 23.3797 388.009 23.7541 388.642 24.2565C390.016 25.3152 390.681 26.7705 390.897 28.4461C391.104 30.0073 391.024 31.5516 390.467 33.0436C389.837 34.7291 388.241 36.1251 386.509 36.5147Z"
            fill="#0A60E8" />
        <path
            d="M366.999 42.8062C376.518 42.8062 384.234 36.8756 384.234 29.5598C384.234 22.2441 376.518 16.3135 366.999 16.3135C357.481 16.3135 349.765 22.2441 349.765 29.5598C349.765 36.8756 357.481 42.8062 366.999 42.8062Z"
            fill="white" />
        <path
            d="M351.858 46.3845C352.526 45.4318 352.981 44.3454 353.19 43.2C353.297 42.6071 353.204 42.1907 352.713 41.763C350.227 39.5976 348.44 36.9495 347.619 33.7367C346.338 28.7058 347.394 24.1379 350.626 20.1093C353.782 16.1794 357.977 13.9618 362.889 13.0866C368.245 12.1324 373.345 12.889 378.084 15.6105C382.062 17.8959 384.991 21.1312 386.277 25.6074C387.75 30.7385 386.691 35.4391 383.373 39.5821C380.272 43.4513 376.15 45.6519 371.338 46.5652C366.354 47.5082 361.541 46.9139 356.969 44.6483C356.705 44.517 356.525 44.4789 356.246 44.7005C354.994 45.7062 353.46 46.295 351.858 46.3845ZM366.957 39.4833H376.522C377.063 39.4949 377.6 39.3888 378.095 39.1724C378.591 38.956 379.034 38.6344 379.394 38.2298C379.76 37.8341 380.102 37.417 380.418 36.9806C382.232 34.451 383.04 31.6292 382.702 28.528C382.407 25.8262 381.26 23.4872 379.429 21.4912C379.065 21.0799 378.617 20.7521 378.115 20.5304C377.613 20.3087 377.069 20.1982 376.521 20.2067C370.16 20.2067 363.799 20.2067 357.438 20.2067C356.404 20.2067 355.486 20.5525 354.776 21.295C352.461 23.7116 351.215 26.5983 351.233 29.9621C351.249 32.942 352.348 35.5407 354.236 37.8261C355.167 38.9554 356.316 39.52 357.809 39.4946C360.854 39.4494 363.904 39.4819 366.957 39.4833Z"
            fill="#0A60E8" />
        <path
            d="M347.485 23.1837C345.565 27.6485 345.568 32.0668 347.504 36.5514C346.004 36.0545 344.806 35.281 343.992 33.9866C342.583 31.728 342.693 27.6118 344.224 25.4366C344.955 24.3991 346.311 23.4462 347.485 23.1837Z"
            fill="#0A60E8" />
        <path
            d="M367.367 18.1062C369.933 16.0566 372.787 14.2469 375.45 12.2764H375.386H371.263C371.236 12.274 371.208 12.279 371.184 12.2909C371.159 12.3029 371.138 12.3212 371.122 12.3441C369.831 14.0399 368.537 15.7399 367.239 17.4442C367.218 17.471 367.192 17.495 367.166 17.5232L367.116 17.4668L366.237 16.3121L363.224 12.3469C363.208 12.3218 363.185 12.3015 363.159 12.2881C363.132 12.2747 363.102 12.2687 363.072 12.2707C361.708 12.2707 360.342 12.2707 358.976 12.2707H358.891C359.307 12.2481 360.518 13.4748 360.878 13.7402L363.036 15.3381C364.327 16.2937 365.652 17.1576 366.943 18.1119L367.171 18.2615L367.367 18.1062Z"
            fill="#0A60E8" />
        <path
            d="M371.207 7.74234C371.022 7.79033 370.849 7.82844 370.678 7.8835C370.121 8.0543 369.559 8.20675 369.014 8.40719C368.416 8.62599 367.835 8.89137 367.249 9.13981C367.225 9.15194 367.199 9.15827 367.173 9.15827C367.146 9.15827 367.12 9.15194 367.097 9.13981C366.191 8.70547 365.252 8.34345 364.289 8.05712C363.911 7.94561 363.529 7.84821 363.138 7.74234L363.263 7.55601C364.003 6.46802 364.885 5.48351 365.884 4.62838C366.28 4.29242 366.703 3.98893 367.112 3.6685C367.128 3.65246 367.15 3.64346 367.173 3.64346C367.195 3.64346 367.217 3.65246 367.233 3.6685C368.769 4.74434 370.095 6.09307 371.145 7.64776L371.207 7.74234Z"
            fill="#0A60E8" />
        <path
            d="M366.447 3.1575C366.176 3.37206 365.907 3.58098 365.648 3.78989C364.366 4.84182 363.258 6.08832 362.362 7.48402C362.349 7.51344 362.325 7.53688 362.296 7.54969C362.266 7.5625 362.233 7.56374 362.203 7.55318C361.914 7.49813 361.622 7.45861 361.33 7.41202L361.059 7.3725C361.095 7.22146 361.127 7.07466 361.167 6.92926C361.35 6.26713 361.595 5.62351 361.898 5.00668C362.444 3.90096 363.177 2.89809 364.065 2.04235C364.077 2.03138 364.091 2.02318 364.107 2.01831C364.122 2.01343 364.139 2.012 364.155 2.01411C364.942 2.32583 365.701 2.7036 366.424 3.14338L366.447 3.1575Z"
            fill="#0A60E8" />
        <path
            d="M367.883 3.15609C368.111 3.02482 368.324 2.89777 368.541 2.77779C369.07 2.48645 369.617 2.22948 370.179 2.00847C370.196 2.0044 370.214 2.00432 370.231 2.00824C370.247 2.01216 370.263 2.01997 370.277 2.03106C371.131 2.85181 371.841 3.80985 372.38 4.86553C372.705 5.50521 372.966 6.17572 373.159 6.86716C373.206 7.03231 373.242 7.2017 373.286 7.37392C373.115 7.39792 372.952 7.41909 372.788 7.4445C372.566 7.47979 372.344 7.51225 372.124 7.55601C372.1 7.56504 372.072 7.56423 372.048 7.55374C372.023 7.54325 372.004 7.52388 371.993 7.49955C371.583 6.85974 371.127 6.25025 370.629 5.67578C369.83 4.75071 368.929 3.91916 367.944 3.19703L367.883 3.15609Z"
            fill="#0A60E8" />
        <path
            d="M360.121 8.09242C359.961 9.21636 359.965 10.3575 360.133 11.4802H360.03C359.389 11.4802 358.748 11.4802 358.106 11.4802C358.078 11.4822 358.05 11.4764 358.026 11.4634C358.001 11.4504 357.98 11.4309 357.965 11.4068C357.647 10.9665 357.443 10.4537 357.372 9.91478C357.289 9.30578 357.379 8.68558 357.634 8.1263C357.642 8.10883 357.654 8.09341 357.669 8.08119C357.684 8.06898 357.701 8.06027 357.72 8.05572C358.24 8.04443 358.759 8.03454 359.279 8.03737C359.537 8.03737 359.795 8.06419 360.052 8.07972C360.071 8.08113 360.088 8.08677 360.121 8.09242Z"
            fill="#0A60E8" />
        <path
            d="M374.223 8.08818C374.332 8.07547 374.428 8.05712 374.524 8.05571C375.22 8.05571 375.916 8.05571 376.611 8.05571C376.63 8.0583 376.649 8.0654 376.665 8.07645C376.68 8.08749 376.694 8.10215 376.703 8.11923C376.943 8.6404 377.041 9.21635 376.985 9.78773C376.931 10.356 376.733 10.901 376.408 11.3701C376.388 11.4065 376.357 11.4363 376.321 11.4563C376.284 11.4763 376.243 11.4855 376.201 11.483C375.572 11.483 374.942 11.483 374.314 11.483H374.209C374.379 10.3582 374.384 9.21443 374.223 8.08818Z"
            fill="#0A60E8" />
        <path
            d="M368.075 9.61834C368.357 9.504 368.639 9.37837 368.921 9.27814C369.476 9.08476 370.033 8.8956 370.594 8.72339C370.924 8.62176 371.265 8.554 371.599 8.46648C371.662 8.45095 371.679 8.48907 371.7 8.53C371.937 8.98877 372.192 9.43907 372.405 9.90912C372.635 10.4145 372.828 10.9368 373.039 11.4619C372.984 11.4619 372.959 11.4717 372.934 11.4717C372.265 11.4717 371.596 11.4717 370.926 11.4717C370.871 11.4656 370.818 11.443 370.776 11.4068C369.954 10.7643 369.083 10.1875 368.171 9.68186L368.092 9.6381C368.092 9.6381 368.085 9.63245 368.075 9.61834Z"
            fill="#0A60E8" />
        <path
            d="M366.271 9.63104L366.011 9.7722C365.151 10.2584 364.33 10.8091 363.553 11.4195C363.516 11.4497 363.471 11.4675 363.423 11.4703C362.749 11.4703 362.075 11.4703 361.399 11.4703C361.381 11.4703 361.364 11.4703 361.33 11.4703C361.369 11.3504 361.405 11.236 361.446 11.1231C361.765 10.2206 362.167 9.34975 362.647 8.52153C362.651 8.50994 362.658 8.49937 362.666 8.49048C362.675 8.48159 362.686 8.47455 362.697 8.4698C362.708 8.46505 362.721 8.46268 362.733 8.46284C362.746 8.46299 362.758 8.46567 362.769 8.47071C363.333 8.62458 363.897 8.75303 364.442 8.9323C365.043 9.12993 365.628 9.37554 366.22 9.59999C366.238 9.60852 366.255 9.61893 366.271 9.63104Z"
            fill="#0A60E8" />
        <path
            d="M373.5 10.4766C373.214 9.72667 372.872 8.99911 372.478 8.29991C372.566 8.28438 372.635 8.27027 372.705 8.26039C372.931 8.22792 373.156 8.19545 373.382 8.16722C373.4 8.16722 373.438 8.20675 373.441 8.23074C373.529 8.85767 373.562 9.49099 373.541 10.1237C373.541 10.2408 373.541 10.358 373.541 10.4752L373.5 10.4766Z"
            fill="#0A60E8" />
        <path
            d="M360.824 10.5302C360.767 9.73787 360.797 8.94165 360.914 8.15593L361.868 8.29709C361.464 9.01385 361.115 9.76038 360.824 10.5302Z"
            fill="#0A60E8" />
        <path
            d="M366.923 35.1116C366.552 35.0965 366.188 35.0021 365.856 34.8349C365.524 34.6676 365.231 34.4314 364.998 34.1418C364.942 34.0438 364.912 33.9336 364.91 33.8211C364.907 33.7085 364.933 33.5971 364.984 33.4967C365.144 33.2681 365.454 33.2709 365.666 33.4967C366.462 34.355 367.462 34.3437 368.286 33.4967C368.4 33.3796 368.775 33.3739 368.929 33.4728C369.178 33.6337 369.143 33.9301 368.937 34.156C368.686 34.4457 368.377 34.6801 368.03 34.8446C367.683 35.009 367.307 35.0999 366.923 35.1116Z"
            fill="#0A60E8" />
        <path
            d="M372.891 30.7427C374.417 30.7427 375.654 29.2348 375.654 27.3747C375.654 25.5146 374.417 24.0067 372.891 24.0067C371.365 24.0067 370.129 25.5146 370.129 27.3747C370.129 29.2348 371.365 30.7427 372.891 30.7427Z"
            fill="#0A60E8" />
        <path
            d="M361.121 30.7427C362.647 30.7427 363.884 29.2348 363.884 27.3747C363.884 25.5146 362.647 24.0067 361.121 24.0067C359.596 24.0067 358.359 25.5146 358.359 27.3747C358.359 29.2348 359.596 30.7427 361.121 30.7427Z"
            fill="#0A60E8" />
        <path
            d="M347.643 20.2787C348.899 20.2787 349.917 19.2593 349.917 18.0018C349.917 16.7443 348.899 15.7249 347.643 15.7249C346.387 15.7249 345.369 16.7443 345.369 18.0018C345.369 19.2593 346.387 20.2787 347.643 20.2787Z"
            fill="#0A60E8" />
    </g>
    <defs>
        <clipPath id="clip0_14_52">
            <rect width="48" height="45" fill="white" transform="translate(343 2)" />
        </clipPath>
    </defs>
</svg>